<svg width="30" height="18" viewBox="0 0 30 18" fill="none" xmlns="http://www.w3.org/2000/svg">
<path d="M15.233 7.87416C13.0486 7.87416 11.2927 6.10815 11.2927 3.93773C11.2902 1.76095 13.0486 0 15.233 0C17.4022 0 19.1631 1.76095 19.1631 3.93773C19.1631 6.11074 17.4021 7.87416 15.233 7.87416Z" fill="#4479EA"/>
<path d="M12.0725 8.51562H18.3835C19.5118 8.51562 20.436 9.55015 20.436 10.8192V17.1581C20.436 17.2278 20.4005 17.2899 20.3967 17.3622H10.0631C10.0555 17.2899 10.0263 17.2278 10.0263 17.1581V10.8192C10.0225 9.55015 10.9467 8.51562 12.0725 8.51562Z" fill="#4479EA"/>
<path d="M4.63451 9.75311C2.8812 9.75311 1.47524 8.34209 1.47524 6.59889C1.47524 4.85569 2.8812 3.44214 4.63451 3.44214C6.37519 3.44214 7.78368 4.85569 7.78368 6.59889C7.78745 8.34086 6.37513 9.75311 4.63451 9.75311Z" fill="#4479EA"/>
<path d="M2.10007 10.2678H7.15724C8.06499 10.2678 8.80664 11.0969 8.80664 12.1175V17.1963C8.80664 17.2508 8.78002 17.3028 8.7762 17.3624H0.487455C0.483635 17.3028 0.458303 17.2508 0.458303 17.1963V12.1175C0.454483 11.0969 1.19484 10.2678 2.10007 10.2678Z" fill="#4479EA"/>
<path d="M25.8266 9.75311C24.0759 9.75311 22.6686 8.34209 22.6686 6.59889C22.6686 4.85569 24.0759 3.44214 25.8266 3.44214C27.5686 3.44214 28.9771 4.85569 28.9771 6.59889C28.9771 8.34209 27.5686 9.75311 25.8266 9.75311Z" fill="#4479EA"/>
<path d="M23.2935 10.2678H28.3557C29.2609 10.2678 30 11.0969 30 12.1175V17.1963C30 17.2508 29.9734 17.3028 29.9683 17.3624H21.6796C21.6758 17.3028 21.6517 17.2508 21.6517 17.1963V12.1175C21.6491 11.0969 22.3896 10.2678 23.2935 10.2678Z" fill="#4479EA"/>
</svg>
