<svg width="28" height="25" viewBox="0 0 28 25" fill="none" xmlns="http://www.w3.org/2000/svg">
<path d="M18.949 4.40332C18.949 1.97541 16.9751 0 14.5488 0C12.1214 0 10.146 1.97541 10.146 4.40332C10.146 6.82971 12.1208 8.8047 14.5488 8.8047C16.9751 8.80456 18.949 6.82915 18.949 4.40332ZM14.5486 8.10209C12.507 8.10209 10.8482 6.44286 10.8482 4.40277C10.8482 2.36212 12.507 0.701917 14.5486 0.701917C16.5893 0.701917 18.2485 2.36212 18.2485 4.40277C18.2481 6.44342 16.5887 8.10209 14.5486 8.10209Z" fill="#2049A1"/>
<path d="M14.8091 3.97011C14.2296 3.7232 14.1356 3.59022 14.1356 3.36626C14.1356 3.17555 14.2217 2.94853 14.6363 2.94853C15.0182 2.94853 15.2616 3.08791 15.3796 3.15607L15.5278 3.24065L15.7942 2.53525L15.6852 2.47307C15.4502 2.3412 15.1987 2.264 14.9175 2.2366V1.59937H14.2171V2.2729C13.6221 2.41827 13.2453 2.8634 13.2453 3.43678C13.2438 4.14663 13.8312 4.4738 14.4047 4.69929C14.9026 4.90043 15.0057 5.09907 15.0057 5.33499C15.0057 5.46839 14.9613 5.58343 14.8767 5.66801C14.6238 5.92243 13.9806 5.83771 13.5748 5.56938L13.419 5.46784L13.1631 6.18074L13.2536 6.24445C13.4822 6.40776 13.8256 6.51974 14.1772 6.55006V7.20371H14.8775V6.50471C15.4934 6.36088 15.9011 5.88236 15.9011 5.28297C15.9023 4.67508 15.5747 4.2817 14.8091 3.97011Z" fill="#2049A1"/>
<path d="M20.2716 6.67773C18.4022 6.67773 16.8799 8.19911 16.8799 10.067C16.8799 11.9364 18.4028 13.4557 20.2716 13.4557C22.1405 13.4557 23.6609 11.9363 23.6609 10.067C23.6603 8.19911 22.1409 6.67773 20.2716 6.67773ZM20.2716 12.8534C18.7339 12.8534 17.4833 11.6034 17.4833 10.067C17.4833 8.53059 18.7339 7.28061 20.2716 7.28061C21.8079 7.28061 23.0571 8.53059 23.0571 10.067C23.0571 11.6034 21.8079 12.8534 20.2716 12.8534Z" fill="#2049A1"/>
<path d="M20.4825 9.7067C20.0599 9.52643 19.9922 9.43295 19.9922 9.27701C19.9922 9.08783 20.1086 8.99227 20.3371 8.99227C20.6184 8.99227 20.7941 9.09228 20.8877 9.14653L21.036 9.22972L21.2615 8.62879L21.154 8.56661C20.9812 8.46854 20.7951 8.40776 20.588 8.38494V7.89502H19.9822V8.41874C19.5361 8.53823 19.2439 8.89267 19.2439 9.33126C19.2439 9.89283 19.7024 10.1502 20.1489 10.327C20.5119 10.4723 20.585 10.6082 20.5831 10.7795C20.5831 10.87 20.5542 10.9488 20.4985 11.0065C20.3188 11.1847 19.8474 11.1244 19.5482 10.9279L19.3933 10.8264L19.1729 11.4346L19.262 11.4979C19.4348 11.6209 19.6906 11.707 19.9541 11.7359V12.2383H20.555L20.5579 11.6981C21.0289 11.5771 21.3374 11.2047 21.3374 10.7389C21.3373 10.1304 20.8787 9.86709 20.4825 9.7067Z" fill="#2049A1"/>
<path d="M0 22.4646H4.38941V13.76H0V22.4646ZM0.874683 14.6352H3.51417V21.59H0.874683V14.6352Z" fill="#2049A1"/>
<path d="M27.7236 19.1381C27.5648 18.802 26.033 15.722 24.2334 16.0426C23.7365 16.1337 23.3039 16.5877 22.7045 17.2155C21.6845 18.2883 20.286 19.7594 18.0548 19.7594C16.6942 19.7594 15.158 19.2073 13.4733 18.1141L16.9666 18.1126C16.9666 18.1126 17.0015 18.1155 17.0593 18.1155C17.9753 18.1155 18.5667 17.6177 18.5667 16.8455V15.3973L18.5578 15.3106C18.4563 14.7979 17.9963 13.8286 16.9957 13.8286H5.17383V22.2081L5.47944 22.3046C5.79701 22.4027 13.2655 24.7356 15.9961 24.7356C15.9961 24.7356 16.0747 24.74 16.2216 24.74C17.3974 24.74 23.473 24.4922 27.6598 19.6074L27.843 19.3923L27.7236 19.1381ZM16.2217 23.8665C16.1053 23.8665 16.04 23.8635 16.0156 23.8635C13.7017 23.8635 7.5002 22.0092 6.04851 21.5661V14.7044H16.9949C17.4624 14.7044 17.65 15.2973 17.6908 15.4492V16.846C17.6908 17.1731 17.3473 17.2414 17.058 17.2414L10.7953 17.2399L11.8308 18.025C14.1104 19.7569 16.2047 20.6345 18.0547 20.6345C20.6594 20.6345 22.2733 18.9409 23.3387 17.8194C23.729 17.4076 24.1726 16.9427 24.3902 16.9018C25.2395 16.763 26.2565 18.1987 26.8061 19.256C22.8753 23.641 17.3115 23.8665 16.2217 23.8665Z" fill="#2049A1"/>
</svg>
