<svg width="32" height="21" viewBox="0 0 32 21" fill="none" xmlns="http://www.w3.org/2000/svg">
<path d="M30.6395 0H1.36046C0.610242 0 0 0.587477 0 1.30953V4.73491V10.1249V19.6905C0 20.4125 0.610242 21 1.36046 21H30.6395C31.3897 21 32 20.4125 32 19.6905V10.1249V4.73491V1.30953C31.9999 0.587477 31.3897 0 30.6395 0ZM5.13852 17.1263H3.77516V13.0138H5.13852V17.1263ZM7.86525 17.1263H6.50189V13.0138H7.86525V17.1263ZM10.592 17.1263H9.22862V13.0138H10.592V17.1263ZM25.3383 17.7592C24.8365 17.7592 24.3543 17.6148 23.9463 17.3468C23.5383 17.6147 23.056 17.7592 22.5542 17.7592C21.1891 17.7592 20.0785 16.69 20.0785 15.3757C20.0785 14.0613 21.1891 12.9921 22.5542 12.9921C23.056 12.9921 23.5383 13.1365 23.9463 13.4045C24.3543 13.1365 24.8365 12.9921 25.3383 12.9921C26.7036 12.9921 27.8144 14.0613 27.8144 15.3757C27.8145 16.6899 26.7037 17.7592 25.3383 17.7592ZM31.091 9.25001H0.90891V5.61H31.091V9.25001Z" fill="#2049A1"/>
</svg>
