<svg width="21" height="20" viewBox="0 0 21 20" fill="none" xmlns="http://www.w3.org/2000/svg">
<path fill-rule="evenodd" clip-rule="evenodd" d="M10.0077 15.1243C8.20109 15.1243 6.36568 14.0519 5.2945 12.6324C0.155352 12.6324 0 19.9741 0 19.9741H20.0141C20.0141 19.9741 20.4175 12.5999 14.6382 12.5999C13.5683 14.0369 11.8143 15.1243 10.0077 15.1243Z" fill="#4479EA"/>
<path fill-rule="evenodd" clip-rule="evenodd" d="M14.3123 6.32321C14.3123 8.4355 12.3842 12.4747 10.0038 12.4747C7.62713 12.4747 5.69775 8.43425 5.69775 6.32321C5.69775 4.21218 7.62587 2.49829 10.0038 2.49829C12.3842 2.49954 14.3123 4.21343 14.3123 6.32321Z" fill="#4479EA"/>
<path fill-rule="evenodd" clip-rule="evenodd" d="M16.2343 4.5002C16.2343 4.1043 15.683 3.78483 14.999 3.78232V2.96672C14.999 2.8452 15.0453 0 10.0189 0C4.99504 0 5.04139 2.8452 5.04139 2.96672V3.81114C5.02887 3.81114 5.01884 3.80738 5.00757 3.80738C4.32728 3.80738 3.77979 4.12184 3.77979 4.51148V7.9618C3.77979 8.34892 4.32853 8.66464 5.00757 8.66464C5.68661 8.66464 6.23786 8.34892 6.23786 7.9618V4.51148C6.23786 4.4576 6.20403 4.40874 6.18398 4.35863V3.41775C6.18398 3.3313 5.82317 1.18393 10.0189 1.18393C14.2159 1.18393 13.78 3.3313 13.78 3.41775V4.40874C13.7724 4.44006 13.7486 4.46763 13.7486 4.5002V8.02945C13.7486 8.4266 14.3036 8.74858 14.9914 8.74858C15.0065 8.74858 15.0178 8.74357 15.0328 8.74357V10.0327H13.8V11.248H16.2468L16.2343 4.5002Z" fill="#4479EA"/>
</svg>
