<svg width="35" height="29" viewBox="0 0 35 29" fill="none" xmlns="http://www.w3.org/2000/svg">
<path d="M13.55 6.44528L9.70787 10.3396L8.65723 9.27471L12.4994 5.38037L13.55 6.44528Z" fill="#474747"/>
<path d="M34.9856 16.4789L29.4801 8.10487H22.7041V14.2163H20.2492V8.10487H18.3829C17.7871 3.4995 13.9469 0 9.23093 0C4.09147 0 0 4.22704 0 9.35625C0 12.8048 1.84475 15.8023 4.61546 17.4029V24.853H8.26907C8.38392 27.1666 10.2717 29 12.5831 29C14.8944 29 16.7822 27.1593 16.897 24.853H22.6538C22.7687 27.1666 24.6565 29 26.9678 29C29.2791 29 31.1669 27.1593 31.2818 24.853H35V16.4789H34.9856ZM26.9534 9.61089H28.669L32.703 15.7223H26.9534V9.61089ZM1.48585 9.34897C1.48585 5.04917 4.90976 1.49875 9.23093 1.49875C13.4731 1.49875 16.976 4.96914 16.976 9.34897C16.976 13.7288 13.5521 17.1992 9.23093 17.1992C4.90976 17.1992 1.48585 13.656 1.48585 9.34897ZM12.5831 27.4212C11.0613 27.4212 9.8267 26.1698 9.8267 24.6274C9.8267 23.085 11.0613 21.8337 12.5831 21.8337C14.1048 21.8337 15.3394 23.085 15.3394 24.6274C15.3394 26.1698 14.0976 27.4212 12.5831 27.4212ZM26.9606 27.4212C25.4389 27.4212 24.2043 26.1698 24.2043 24.6274C24.2043 23.085 25.4389 21.8337 26.9606 21.8337C28.4824 21.8337 29.717 23.085 29.717 24.6274C29.717 26.1698 28.4824 27.4212 26.9606 27.4212ZM33.4998 23.3397H31.088V23.347C30.5496 21.5572 28.9059 20.2549 26.9606 20.2549C25.0154 20.2549 23.3716 21.5572 22.8333 23.347H16.7104C16.1721 21.5572 14.5283 20.2549 12.5831 20.2549C10.6378 20.2549 8.99405 21.5572 8.4557 23.347H6.10131V18.0941C7.07752 18.4433 8.12551 18.6325 9.23093 18.6325C14.2053 18.6325 18.3255 14.6964 18.4547 9.61089H18.7562V15.7223H24.1899V9.61089H25.4604V17.2283H33.4998V23.3397Z" fill="#474747"/>
<path d="M9.97022 2.48828H8.48438V3.84879H9.97022V2.48828Z" fill="#474747"/>
<path d="M9.97022 14.8564H8.48438V16.217H9.97022V14.8564Z" fill="#474747"/>
<path d="M3.79737 8.59961H2.45508V10.1056H3.79737V8.59961Z" fill="#474747"/>
<path d="M16.0068 8.59961H14.6646V10.1056H16.0068V8.59961Z" fill="#474747"/>
</svg>
