<svg width="32" height="27" viewBox="0 0 32 27" fill="none" xmlns="http://www.w3.org/2000/svg">
<rect width="32" height="27" fill="#FC5F2D"/>
<path d="M3.95881 18V9.27273H9.4304V10.4062H5.27557V13.0653H9.14489V14.1946H5.27557V16.8665H9.48153V18H3.95881ZM18.2333 9.27273V18H17.0231L12.587 11.5994H12.506V18H11.1893V9.27273H12.408L16.8484 15.6818H16.9293V9.27273H18.2333ZM26.0604 12.0298C25.978 11.7713 25.8672 11.5398 25.728 11.3352C25.5916 11.1278 25.4283 10.9517 25.2379 10.8068C25.0476 10.6591 24.8303 10.5469 24.5859 10.4702C24.3445 10.3935 24.0788 10.3551 23.7891 10.3551C23.2976 10.3551 22.8544 10.4815 22.4595 10.7344C22.0646 10.9872 21.7521 11.358 21.522 11.8466C21.2947 12.3324 21.1811 12.9276 21.1811 13.6321C21.1811 14.3395 21.2962 14.9375 21.5263 15.4261C21.7564 15.9148 22.0717 16.2855 22.4723 16.5384C22.8729 16.7912 23.3288 16.9176 23.8402 16.9176C24.3146 16.9176 24.728 16.821 25.0803 16.6278C25.4354 16.4347 25.7095 16.1619 25.9027 15.8097C26.0987 15.4545 26.1967 15.0369 26.1967 14.5568L26.5376 14.6207H24.0405V13.5341H27.4709V14.527C27.4709 15.2599 27.3146 15.8963 27.0021 16.4361C26.6925 16.973 26.2635 17.3878 25.7152 17.6804C25.1697 17.973 24.5447 18.1193 23.8402 18.1193C23.0504 18.1193 22.3572 17.9375 21.7607 17.5739C21.1669 17.2102 20.7038 16.6946 20.3714 16.027C20.0391 15.3565 19.8729 14.5611 19.8729 13.6406C19.8729 12.9446 19.9695 12.3196 20.1626 11.7656C20.3558 11.2116 20.6271 10.7415 20.9766 10.3551C21.3288 9.96591 21.7422 9.66903 22.2166 9.46449C22.6939 9.2571 23.2152 9.15341 23.7805 9.15341C24.2521 9.15341 24.6911 9.22301 25.0973 9.36222C25.5064 9.50142 25.87 9.69886 26.1882 9.95455C26.5092 10.2102 26.7749 10.5142 26.9851 10.8665C27.1953 11.2159 27.3374 11.6037 27.4112 12.0298H26.0604Z" fill="white"/>
</svg>
