<svg width="40" height="22" viewBox="0 0 40 22" fill="none" xmlns="http://www.w3.org/2000/svg">
<rect x="0.75" y="0.75" width="38.5" height="20.5" stroke="#2049A1" stroke-width="1.5"/>
<path d="M16.4226 5.81818H18.267V12.4702C18.267 13.1993 18.0947 13.8407 17.75 14.3942C17.4086 14.9477 16.928 15.3802 16.3082 15.6918C15.6884 16 14.9643 16.1541 14.1357 16.1541C13.3037 16.1541 12.5779 16 11.9581 15.6918C11.3383 15.3802 10.8577 14.9477 10.5163 14.3942C10.175 13.8407 10.0043 13.1993 10.0043 12.4702V5.81818H11.8487V12.3161C11.8487 12.7403 11.9415 13.1181 12.1271 13.4496C12.3161 13.781 12.5812 14.0412 12.9226 14.2301C13.264 14.4157 13.6683 14.5085 14.1357 14.5085C14.603 14.5085 15.0073 14.4157 15.3487 14.2301C15.6934 14.0412 15.9586 13.781 16.1442 13.4496C16.3298 13.1181 16.4226 12.7403 16.4226 12.3161V5.81818ZM19.9718 16V5.81818H23.79C24.5722 5.81818 25.2285 5.96401 25.7588 6.25568C26.2924 6.54735 26.6951 6.94839 26.9669 7.45881C27.242 7.96591 27.3795 8.54261 27.3795 9.18892C27.3795 9.84186 27.242 10.4219 26.9669 10.929C26.6918 11.4361 26.2858 11.8355 25.7488 12.1271C25.2119 12.4155 24.5507 12.5597 23.7652 12.5597H21.2346V11.0433H23.5166C23.974 11.0433 24.3485 10.9638 24.6402 10.8047C24.9318 10.6456 25.1473 10.4268 25.2865 10.1484C25.429 9.87003 25.5002 9.55019 25.5002 9.18892C25.5002 8.82765 25.429 8.50947 25.2865 8.23438C25.1473 7.95928 24.9302 7.7455 24.6352 7.59304C24.3435 7.43726 23.9673 7.35938 23.5066 7.35938H21.8163V16H19.9718ZM30.5261 5.81818V16H28.6816V5.81818H30.5261Z" fill="#2049A1"/>
</svg>
