<svg width="11" height="10" viewBox="0 0 11 10" fill="none" xmlns="http://www.w3.org/2000/svg">
<path d="M10.1518 0.884073C9.88302 0.603796 9.56389 0.38146 9.21265 0.229768C8.86141 0.0780762 8.48493 0 8.10473 0C7.72453 0 7.34806 0.0780762 6.99682 0.229768C6.64558 0.38146 6.32645 0.603796 6.05767 0.884073L5.49986 1.46547L4.94205 0.884073C4.39913 0.318198 3.66278 0.000293312 2.89498 0.000293318C2.12719 0.000293324 1.39084 0.318198 0.847921 0.884073C0.305006 1.44995 5.72054e-09 2.21744 0 3.0177C-5.72054e-09 3.81797 0.305006 4.58546 0.847921 5.15134L1.40573 5.73274L5.49986 10L9.59399 5.73274L10.1518 5.15134C10.4207 4.87119 10.634 4.53857 10.7796 4.17247C10.9251 3.80638 11 3.41398 11 3.0177C11 2.62143 10.9251 2.22903 10.7796 1.86293C10.634 1.49684 10.4207 1.16422 10.1518 0.884073Z" fill="white"/>
</svg>
