<svg width="16" height="17" viewBox="0 0 16 17" fill="none" xmlns="http://www.w3.org/2000/svg">
<path d="M8 4.46667C10.7564 4.46667 13.2145 6.02867 14.4145 8.5C13.2145 10.9713 10.7564 12.5333 8 12.5333C5.24364 12.5333 2.78545 10.9713 1.58545 8.5C2.78545 6.02867 5.24364 4.46667 8 4.46667ZM8 3C4.36364 3 1.25818 5.28067 0 8.5C1.25818 11.7193 4.36364 14 8 14C11.6364 14 14.7418 11.7193 16 8.5C14.7418 5.28067 11.6364 3 8 3ZM8 8.13333C9.00364 8.13333 9.81818 8.95467 9.81818 9.96667C9.81818 10.9787 9.00364 10.3333 8 10.3333C6.99636 10.3333 6.18182 9.512 6.18182 8.5C6.18182 7.488 6.99636 6.66667 8 6.66667M8 5.2C6.19636 5.2 4.72727 6.68133 4.72727 8.5C4.72727 10.3187 6.19636 11.8 8 11.8C9.80364 11.8 11.2727 10.3187 11.2727 8.5C11.2727 6.68133 9.80364 5.2 8 5.2Z" fill="#808080"/>
<line x1="11.3354" y1="1.00623" x2="4.00623" y2="15.6646" stroke="#808080" stroke-width="1.5" stroke-linecap="round"/>
</svg>
