<svg width="23" height="23" viewBox="0 0 23 23" fill="none" xmlns="http://www.w3.org/2000/svg">
<path d="M22.617 9.9558C22.8468 9.9558 23 9.80233 23 9.57214V8.03753C23 7.8457 22.8851 7.73061 22.7319 7.65388L11.7029 0.057548C11.588 -0.0191827 11.3966 -0.0191827 11.2817 0.057548L0.214379 7.69224C0.176084 7.73061 0.137789 7.73061 0.0994937 7.76897C-0.0153917 7.8457 -0.0153917 7.99917 0.0229034 8.15263V9.57214C0.0229034 9.80233 0.176084 9.9558 0.405855 9.9558H0.788807V20.6981H0.405855C0.176084 20.6981 0.0229034 20.8515 0.0229034 21.0817V22.6163C0.0229034 22.8465 0.176084 23 0.405855 23H5.76718H17.2557H22.617C22.8468 23 23 22.8465 23 22.6163V21.0817C23 20.8515 22.8468 20.6981 22.617 20.6981H22.2341V9.9558H22.617ZM22.2341 9.18849H21.8511H18.0216H17.6387V8.42118H22.2341V9.18849ZM17.6387 10.7231H15.7239V11.4904H17.6387V14.9433H15.7239V15.7106H17.6387V18.7798H14.5751V15.7106C14.5751 13.9842 13.2347 12.6414 11.5115 12.6414C9.78817 12.6414 8.44784 13.9842 8.44784 15.7106V18.7798H5.38423V17.6289H7.29898V16.8616H5.38423V12.6414H7.29898V11.8741H5.38423V9.9558H5.76718C5.99695 9.9558 6.15013 9.80233 6.15013 9.57214V8.42118H16.8728V9.57214C16.8728 9.80233 17.026 9.9558 17.2557 9.9558H17.6387V10.7231ZM11.1285 18.7798H9.21374V15.7106C9.21374 14.5213 10.0179 13.6005 11.1285 13.447V18.7798ZM11.8944 13.4087C13.005 13.6005 13.8092 14.5213 13.8092 15.6722V18.7415H11.8944V13.4087ZM1.17176 9.18849H0.788807V8.42118H5.38423V9.18849H5.00127H1.17176ZM2.74186 6.88657H14.958V6.11927H3.85242L11.5115 0.824854L21.3916 7.65388H17.2557H5.76718H1.6313L2.74186 6.88657ZM1.55471 9.9558H2.32061V16.4779H3.08652V9.9558H4.61832V20.6981H1.55471V9.9558ZM5.38423 22.2327H0.788807V21.4654H1.17176H5.00127H5.38423V22.2327ZM16.8728 21.0817V22.2327H6.15013V21.0817C6.15013 20.8515 5.99695 20.6981 5.76718 20.6981H5.38423V19.5471H17.6387V20.6981H17.2557C17.026 20.6981 16.8728 20.8515 16.8728 21.0817ZM22.2341 22.2327H17.6387V21.4654H18.0216H21.8511H22.2341V22.2327ZM21.4682 20.6981H18.4046V9.9558H19.1705V16.4779H19.9364V9.9558H21.4682V20.6981Z" fill="#2049A1"/>
<path d="M11.5118 2.28271C10.6693 2.28271 9.97998 2.97329 9.97998 3.81733C9.97998 4.66136 10.6693 5.35194 11.5118 5.35194C12.3543 5.35194 13.0436 4.66136 13.0436 3.81733C13.0436 2.97329 12.3543 2.28271 11.5118 2.28271ZM11.5118 4.58463C11.0905 4.58463 10.7459 4.23935 10.7459 3.81733C10.7459 3.39531 11.0905 3.05002 11.5118 3.05002C11.933 3.05002 12.2777 3.39531 12.2777 3.81733C12.2777 4.23935 11.933 4.58463 11.5118 4.58463Z" fill="#2049A1"/>
<path d="M3.0867 17.2451H2.3208V18.3961H3.0867V17.2451Z" fill="#2049A1"/>
<path d="M19.9363 17.2451H19.1704V18.3961H19.9363V17.2451Z" fill="#2049A1"/>
<path d="M16.1069 20.698H6.91602V21.4653H16.1069V20.698Z" fill="#2049A1"/>
<path d="M13.4267 10.7231H9.59717V11.4905H13.4267V10.7231Z" fill="#2049A1"/>
<path d="M12.66 9.18848H10.3623V9.95578H12.66V9.18848Z" fill="#2049A1"/>
</svg>
