<svg width="25" height="25" viewBox="0 0 25 25" fill="none" xmlns="http://www.w3.org/2000/svg">
<path d="M10.15 9.1837C9.77806 8.87278 9.24244 8.91236 8.92844 9.24028C8.84871 9.29049 8.77133 9.34712 8.70849 9.42327C8.37995 9.82142 8.47936 10.4429 8.86247 10.7681C9.85813 11.6134 11.1479 10.0178 10.15 9.1837Z" fill="#4E4E4E"/>
<path d="M16.0017 12.8712C15.9395 12.8798 15.881 12.8993 15.8226 12.9186C15.8033 12.922 15.7847 12.9286 15.7654 12.9338C15.7639 12.9344 15.7621 12.9348 15.7606 12.9354C15.5494 12.9945 15.3495 13.1564 15.2374 13.3812C15.2369 13.3821 15.2372 13.383 15.2366 13.3838C15.0692 13.6617 15.0316 14.0098 15.2145 14.327C15.2242 14.3439 15.2389 14.3556 15.2496 14.3717C15.3732 14.6356 15.5807 14.8614 15.8649 14.9666C16.5286 15.2121 17.2874 14.7846 17.3544 14.0615C17.4227 13.3249 16.697 12.775 16.0017 12.8712Z" fill="#4E4E4E"/>
<path d="M24.9407 10.4283C25.0748 10.2405 24.9623 9.98676 24.7948 9.87186C24.1365 9.42055 23.139 8.88324 22.2646 8.70131C22.8355 8.10004 23.3134 7.34597 23.8032 6.70713C23.9654 6.49562 23.7451 6.17436 23.5027 6.18375C23.0568 6.20097 22.6105 6.21478 22.1649 6.23776C21.7438 6.25946 21.2753 6.3483 20.8596 6.26667C20.828 6.26046 20.7994 6.26421 20.7699 6.26477C21.0222 5.60217 21.2454 4.9262 21.4747 4.25578C21.5922 3.91192 21.7952 3.38854 21.3367 3.18737C20.9063 2.9984 20.1002 3.39581 19.689 3.51686C19.3459 3.61789 19.0026 3.73234 18.6619 3.85311C18.6042 3.8682 18.5467 3.88335 18.489 3.89845C18.5733 3.05201 18.6063 2.20167 18.5567 1.35076C18.5427 1.11112 18.2621 0.884181 18.0319 1.04951C17.2553 1.60761 16.4741 2.17891 15.7379 2.79359C15.4685 1.94694 15.1714 1.10637 14.8776 0.270224C14.7988 0.0460769 14.4574 -0.120034 14.278 0.111884C13.8323 0.687822 13.2504 1.29798 12.856 1.95214C12.3902 1.28489 11.789 0.666856 11.2634 0.119935C11.0602 -0.0913521 10.7105 0.0205256 10.6291 0.287332C10.3463 1.2159 9.96277 2.09096 9.5677 2.97307C9.37285 2.80942 9.17437 2.64856 8.99149 2.48128C8.54241 2.07061 8.10843 1.64395 7.68015 1.21176C7.53361 1.06393 7.21464 1.07003 7.12059 1.28383C6.85938 1.87872 6.94297 2.5709 6.98971 3.20594C7.00738 3.44658 7.00911 3.76644 7.0478 4.07328C6.32509 3.79384 5.59378 3.53218 4.87354 3.25911C4.59119 3.15215 4.34982 3.4662 4.41099 3.72155C4.62373 4.60841 4.81343 5.51942 5.11831 6.38363C4.26808 6.32113 3.42841 6.25783 2.58326 6.08574C2.28609 6.02524 1.9797 6.33997 2.16516 6.62942C2.60803 7.31986 3.09138 8.05693 3.6539 8.69711C3.40794 8.79004 3.16786 8.9065 2.93365 9.00843C2.33099 9.2707 1.74219 9.56094 1.16351 9.87247C0.87395 10.0284 0.912249 10.4294 1.16351 10.5942C1.80118 11.0123 2.41843 11.4593 3.03765 11.9033C2.40971 12.4055 1.79441 12.9225 1.14584 13.3994C0.886362 13.5902 0.909454 13.982 1.23575 14.0879C1.74487 14.253 2.25092 14.427 2.75172 14.616C3.0334 14.7222 3.31502 14.8546 3.60061 14.9681C3.09233 15.6653 2.65074 16.4153 2.1651 17.1271C1.9948 17.3765 2.22179 17.7125 2.50118 17.7129C3.34046 17.7139 4.178 17.7419 5.01594 17.7697C4.82691 18.5406 4.65722 19.3167 4.46287 20.0864C4.39544 20.3529 4.65246 20.6769 4.94354 20.5673C5.49515 20.3594 6.04677 20.1516 6.5985 19.9438C6.75723 19.8839 6.97293 19.8305 7.17818 19.7585C7.04903 20.6719 7.07218 21.6326 6.99133 22.5417C6.96941 22.7892 7.24533 22.9545 7.46104 22.8994C7.99817 22.7621 8.37037 22.363 8.81593 22.0533C9.11264 21.8472 9.46231 21.6862 9.77726 21.4907C9.97731 22.3281 10.3201 23.1597 10.5398 23.9816C10.6339 24.3341 11.0765 24.3443 11.2658 24.0765C11.7756 23.3552 12.3367 22.6211 12.7825 21.8516C12.9021 22.0434 13.0309 22.2303 13.1521 22.4168C13.4674 22.9019 13.784 23.3872 14.1137 23.8627C14.2658 24.0822 14.6505 24.1478 14.7871 23.8627C15.1267 23.1535 15.4419 22.425 15.7375 21.691C15.9226 21.8957 16.1139 22.0901 16.3 22.2557C16.7231 22.6323 17.4556 23.3407 18.0602 23.169C18.1679 23.1385 18.2271 23.0551 18.2631 22.9622C18.303 22.9181 18.334 22.8685 18.3432 22.8119C18.5035 21.829 18.6333 20.814 18.6237 19.8125C18.9137 19.9614 19.2255 20.0811 19.5189 20.1969C20.0744 20.4161 20.6324 20.6286 21.1892 20.844C21.4465 20.9436 21.7547 20.6366 21.6544 20.3789C21.4503 19.8549 21.2442 19.3346 21.0776 18.797C20.9852 18.499 20.914 18.1901 20.8259 17.8883L20.8069 17.6297C21.6636 17.7204 22.5675 17.6649 23.4109 17.6772C23.7018 17.6814 23.9182 17.3336 23.7532 17.0806C23.3285 16.4286 22.9164 15.6345 22.3962 15.0035C22.6368 14.931 22.8738 14.8338 23.1041 14.7556C23.6045 14.5854 24.1003 14.404 24.5964 14.2218C24.9228 14.1019 25.0216 13.6538 24.6959 13.461C24.0374 13.0711 23.4257 12.6359 22.8174 12.1871C23.5913 11.6989 24.4223 11.1536 24.9407 10.4283ZM8.64769 12.4961C8.45675 12.4037 8.26408 12.2826 8.0684 12.1085C6.65268 10.8479 6.79346 8.32676 8.71439 7.66925C10.5002 7.05792 12.5442 8.2316 12.1323 10.3008C11.7884 12.0276 10.1671 12.5243 8.64769 12.4961ZM11.0743 16.431C10.6586 16.4178 10.2385 16.447 9.82914 16.4809C9.58811 16.5008 9.33187 16.5179 9.0791 16.5512C11.3623 13.659 13.1078 10.5094 14.9582 7.36822C15.2991 7.34865 15.639 7.3188 15.9801 7.27961C13.9853 10.0461 12.3308 13.3434 11.0743 16.431ZM16.1154 16.4854C15.5021 16.5311 14.96 16.4317 14.5296 16.1661C13.5081 15.126 13.2555 13.4341 14.3413 12.2518C15.5646 10.9198 17.7612 11.2298 18.5516 12.8479C19.4062 14.5974 17.8834 16.3537 16.1154 16.4854Z" fill="#4E4E4E"/>
<path d="M15.9316 20.8413C15.9347 20.8413 15.9347 20.8364 15.9316 20.8364V20.8413Z" fill="#4E4E4E"/>
</svg>
