<svg width="31" height="31" viewBox="0 0 31 31" fill="none" xmlns="http://www.w3.org/2000/svg">
<path d="M2.42594 10.435C2.42594 9.883 2.87394 9.435 3.42594 9.435C3.97794 9.435 4.42594 9.883 4.42594 10.435C4.42594 10.987 3.97794 11.435 3.42594 11.435C2.87394 11.435 2.42594 10.987 2.42594 10.435ZM3.42594 21.435C3.97794 21.435 4.42594 20.987 4.42594 20.435C4.42594 19.883 3.97794 19.435 3.42594 19.435C2.87394 19.435 2.42594 19.883 2.42594 20.435C2.42594 20.987 2.87394 21.435 3.42594 21.435ZM27.4259 9.435C26.8739 9.435 26.4259 9.883 26.4259 10.435C26.4259 10.987 26.8739 11.435 27.4259 11.435C27.9779 11.435 28.4259 10.987 28.4259 10.435C28.4259 9.883 27.9779 9.435 27.4259 9.435ZM20.4259 15.435C20.4259 18.749 18.7399 21.435 15.4259 21.435C12.1119 21.435 10.4259 18.749 10.4259 15.435C10.4259 12.121 12.1119 9.435 15.4259 9.435C18.7399 9.435 20.4259 12.121 20.4259 15.435ZM19.4259 15.435C19.4259 13.018 18.3749 10.435 15.4259 10.435C12.4769 10.435 11.4259 13.018 11.4259 15.435C11.4259 17.852 12.4769 20.435 15.4259 20.435C18.3749 20.435 19.4259 17.852 19.4259 15.435ZM27.4259 19.435C26.8739 19.435 26.4259 19.883 26.4259 20.435C26.4259 20.987 26.8739 21.435 27.4259 21.435C27.9779 21.435 28.4259 20.987 28.4259 20.435C28.4259 19.883 27.9779 19.435 27.4259 19.435ZM30.4259 11.715V21.435C30.4259 22.54 29.5309 23.435 28.4259 23.435H18.7399L11.8909 30.284C11.4999 30.675 10.9889 30.87 10.4769 30.87C9.96494 30.87 9.45294 30.675 9.06294 30.284L2.18994 23.411C1.26694 23.301 0.542943 22.567 0.447943 21.64C-0.142057 20.916 -0.149057 19.886 0.425943 19.155V9.435C0.425943 8.33 1.32094 7.435 2.42594 7.435H12.1119L18.9609 0.586C19.3519 0.195 19.8629 0 20.3749 0C20.8869 0 21.3989 0.195 21.7889 0.586L28.6619 7.459C29.5849 7.569 30.3089 8.302 30.4039 9.23C30.9939 9.954 31.0009 10.984 30.4259 11.715ZM13.5269 7.435H27.2249L21.0829 1.293C20.8939 1.104 20.6429 1 20.3759 1C20.1089 1 19.8579 1.104 19.6689 1.293L13.5269 7.435ZM17.3249 23.435H3.62694L9.76894 29.577C9.95794 29.766 10.2089 29.87 10.4759 29.87C10.7429 29.87 10.9939 29.766 11.1829 29.577L17.3249 23.435ZM29.4259 9.435C29.4259 8.884 28.9769 8.435 28.4259 8.435H2.42594C1.87494 8.435 1.42594 8.884 1.42594 9.435V21.435C1.42594 21.986 1.87494 22.435 2.42594 22.435H28.4259C28.9769 22.435 29.4259 21.986 29.4259 21.435V9.435Z" fill="#474747"/>
</svg>
