<svg width="24" height="23" viewBox="0 0 24 23" fill="none" xmlns="http://www.w3.org/2000/svg">
<path d="M2.04747 18.236C2.10267 18.236 2.15827 18.2468 2.21187 18.2703C2.41987 18.3607 2.64026 18.4223 2.86746 18.4523C3.08626 18.4812 3.23946 18.6752 3.20906 18.8861C3.17906 19.0966 2.98146 19.2464 2.75826 19.2148C2.45507 19.1744 2.15987 19.0928 1.88227 18.9715C1.68107 18.8838 1.59148 18.6559 1.68267 18.4623C1.74947 18.3203 1.89507 18.236 2.04747 18.236Z" fill="#2049A1"/>
<path d="M4.41123 18.4744H5.21122C5.43241 18.4744 5.61121 18.6464 5.61121 18.8593C5.61121 19.0721 5.43241 19.2441 5.21122 19.2441H4.41123C4.19003 19.2441 4.01123 19.0721 4.01123 18.8593C4.01123 18.6464 4.19043 18.4744 4.41123 18.4744Z" fill="#2049A1"/>
<path d="M17.1766 20.7837L15.0022 22.8759C14.8302 23.0414 14.5302 23.0414 14.3586 22.8759L13.5402 22.088L12.7219 22.8755C12.5499 23.041 12.2499 23.041 12.0783 22.8755L9.90388 20.7837H3.19996C1.43558 20.7837 0 19.4023 0 17.7046V16.1651C0 16.3256 0.101999 16.4626 0.246797 16.5203C0.397595 16.1731 0.614393 15.8599 0.87919 15.5908C0.88599 15.5658 0.88879 15.5396 0.89639 15.515C0.958789 15.311 0.83759 15.097 0.625593 15.0374C0.587593 15.0266 0.549994 15.0216 0.512794 15.0216C0.339596 15.0216 0.180398 15.1301 0.129199 15.2979C0.0431995 15.5785 0 15.8699 0 16.1651V4.61859C0 4.83143 0.178798 5.00347 0.399995 5.00347C0.621193 5.00347 0.799991 4.83143 0.799991 4.61859C0.799991 4.39728 0.83239 4.17828 0.89639 3.96852C0.958789 3.76454 0.83759 3.55054 0.625593 3.49088C0.587593 3.48011 0.549994 3.4751 0.512794 3.4751C0.339596 3.4751 0.180398 3.58364 0.129199 3.75145C0.0431995 4.03203 0 4.32338 0 4.61859V2.75268C0 1.23509 1.28359 0 2.86077 0H23.9997V1.92441C23.9997 1.71157 23.8209 1.53953 23.5997 1.53953H22.7997C22.5785 1.53953 22.3997 1.71157 22.3997 1.92441C22.3997 2.13725 22.5785 2.30929 22.7997 2.30929H23.5997C23.8209 2.30929 23.9997 2.13725 23.9997 1.92441V4.42615H18.7998C16.7046 4.42615 14.9998 6.06652 14.9998 8.08253C14.9998 10.0985 16.7046 11.7389 18.7998 11.7389H23.9997V13.4709C23.9997 13.258 23.8209 13.086 23.5997 13.086H22.7997C22.5785 13.086 22.3997 13.258 22.3997 13.4709C22.3997 13.6837 22.5785 13.8558 22.7997 13.8558H23.5997C23.8209 13.8558 23.9997 13.6837 23.9997 13.4709V14.6255V15.3953V20.7837H17.1766ZM20.3998 2.30929H21.1998C21.421 2.30929 21.5997 2.13725 21.5997 1.92441C21.5997 1.71157 21.421 1.53953 21.1998 1.53953H20.3998C20.1786 1.53953 19.9998 1.71157 19.9998 1.92441C19.9998 2.13725 20.1786 2.30929 20.3998 2.30929ZM17.9998 2.30929H18.7998C19.021 2.30929 19.1998 2.13725 19.1998 1.92441C19.1998 1.71157 19.021 1.53953 18.7998 1.53953H17.9998C17.7786 1.53953 17.5998 1.71157 17.5998 1.92441C17.5998 2.13725 17.7786 2.30929 17.9998 2.30929ZM15.5998 2.30929H16.3998C16.621 2.30929 16.7998 2.13725 16.7998 1.92441C16.7998 1.71157 16.621 1.53953 16.3998 1.53953H15.5998C15.3786 1.53953 15.1998 1.71157 15.1998 1.92441C15.1998 2.13725 15.3786 2.30929 15.5998 2.30929ZM14.6806 22.0969L16.0454 20.7837L21.6453 15.3953H19.489L14.9822 19.7322C14.901 19.808 14.7938 19.8499 14.6806 19.8499L14.4918 19.8407L9.87189 15.3953H7.71591L14.1062 21.5438L14.6806 22.0969ZM12.3999 22.0969L12.9746 21.5438L6.58472 15.3953H5.43514L11.0351 20.7837L12.3999 22.0969ZM3.19996 20.0139H9.10389L7.99351 18.9455C7.95191 19.1152 7.80071 19.2441 7.61151 19.2441H6.81152C6.59032 19.2441 6.41153 19.0721 6.41153 18.8592C6.41153 18.6464 6.59032 18.4744 6.81152 18.4744H7.50351L4.30355 15.3953H3.19996C2.15877 15.3953 1.27279 16.0377 0.941189 16.9314C1.00399 17.103 1.08239 17.2685 1.18559 17.4202C1.30678 17.598 1.25479 17.8366 1.06959 17.9528C0.993588 18.0006 0.907189 18.0137 0.82319 18.0083C0.978389 19.1383 1.98398 20.0139 3.19996 20.0139ZM2.40037 2.00716C2.33317 1.86591 2.18837 1.78239 2.03638 1.78239C1.98078 1.78239 1.92438 1.79355 1.87038 1.81742C1.59318 1.93942 1.33558 2.09876 1.10479 2.29121C0.937989 2.43053 0.919989 2.67378 1.06439 2.83427C1.20959 2.99477 1.46198 3.01209 1.62878 2.87315C1.80198 2.72843 1.99518 2.60873 2.20317 2.51713C2.40397 2.42899 2.49197 2.20037 2.40037 2.00716ZM2.40037 13.5536C2.33317 13.4124 2.18837 13.3289 2.03638 13.3289C1.98078 13.3289 1.92438 13.34 1.87038 13.3639C1.59318 13.4859 1.33558 13.6452 1.10479 13.8377C0.937989 13.977 0.919989 14.2203 1.06439 14.3807C1.20959 14.5412 1.46198 14.5586 1.62878 14.4196C1.80198 14.2749 1.99518 14.1552 2.20317 14.0636C2.40397 13.9755 2.49197 13.7468 2.40037 13.5536ZM4.39995 1.53953H3.59996C3.37876 1.53953 3.19996 1.71157 3.19996 1.92441C3.19996 2.13725 3.37876 2.30929 3.59996 2.30929H4.39995C4.62115 2.30929 4.79994 2.13725 4.79994 1.92441C4.79994 1.71157 4.62115 1.53953 4.39995 1.53953ZM4.39995 13.086H3.59996C3.37876 13.086 3.19996 13.258 3.19996 13.4709C3.19996 13.6837 3.37876 13.8558 3.59996 13.8558H4.39995C4.62115 13.8558 4.79994 13.6837 4.79994 13.4709C4.79994 13.258 4.62115 13.086 4.39995 13.086ZM6.79992 1.53953H5.99993C5.77873 1.53953 5.59994 1.71157 5.59994 1.92441C5.59994 2.13725 5.77873 2.30929 5.99993 2.30929H6.79992C7.02112 2.30929 7.19992 2.13725 7.19992 1.92441C7.19992 1.71157 7.02112 1.53953 6.79992 1.53953ZM6.79992 13.086H5.99993C5.77873 13.086 5.59994 13.258 5.59994 13.4709C5.59994 13.6837 5.77873 13.8558 5.99993 13.8558H6.79992C7.02112 13.8558 7.19992 13.6837 7.19992 13.4709C7.19992 13.258 7.02112 13.086 6.79992 13.086ZM9.19989 1.53953H8.3999C8.17871 1.53953 7.99991 1.71157 7.99991 1.92441C7.99991 2.13725 8.17871 2.30929 8.3999 2.30929H9.19989C9.42109 2.30929 9.59989 2.13725 9.59989 1.92441C9.59989 1.71157 9.42109 1.53953 9.19989 1.53953ZM9.19989 13.086H8.3999C8.17871 13.086 7.99991 13.258 7.99991 13.4709C7.99991 13.6837 8.17871 13.8558 8.3999 13.8558H9.19989C9.42109 13.8558 9.59989 13.6837 9.59989 13.4709C9.59989 13.258 9.42109 13.086 9.19989 13.086ZM11.5999 1.53953H10.7999C10.5787 1.53953 10.3999 1.71157 10.3999 1.92441C10.3999 2.13725 10.5787 2.30929 10.7999 2.30929H11.5999C11.8211 2.30929 11.9999 2.13725 11.9999 1.92441C11.9999 1.71157 11.8211 1.53953 11.5999 1.53953ZM11.5999 13.086H10.7999C10.5787 13.086 10.3999 13.258 10.3999 13.4709C10.3999 13.6837 10.5787 13.8558 10.7999 13.8558H11.5999C11.8211 13.8558 11.9999 13.6837 11.9999 13.4709C11.9999 13.258 11.8211 13.086 11.5999 13.086ZM13.9998 1.53953H13.1998C12.9786 1.53953 12.7999 1.71157 12.7999 1.92441C12.7999 2.13725 12.9786 2.30929 13.1998 2.30929H13.9998C14.221 2.30929 14.3998 2.13725 14.3998 1.92441C14.3998 1.71157 14.221 1.53953 13.9998 1.53953ZM13.9998 13.086H13.1998C12.9786 13.086 12.7999 13.258 12.7999 13.4709C12.7999 13.6837 12.9786 13.8558 13.1998 13.8558H13.9998C14.221 13.8558 14.3998 13.6837 14.3998 13.4709C14.3998 13.258 14.221 13.086 13.9998 13.086ZM16.3998 13.086H15.5998C15.3786 13.086 15.1998 13.258 15.1998 13.4709C15.1998 13.6837 15.3786 13.8558 15.5998 13.8558H16.3998C16.621 13.8558 16.7998 13.6837 16.7998 13.4709C16.7998 13.258 16.621 13.086 16.3998 13.086ZM18.7998 13.086H17.9998C17.7786 13.086 17.5998 13.258 17.5998 13.4709C17.5998 13.6837 17.7786 13.8558 17.9998 13.8558H18.7998C19.021 13.8558 19.1998 13.6837 19.1998 13.4709C19.1998 13.258 19.021 13.086 18.7998 13.086ZM21.1998 13.086H20.3998C20.1786 13.086 19.9998 13.258 19.9998 13.4709C19.9998 13.6837 20.1786 13.8558 20.3998 13.8558H21.1998C21.421 13.8558 21.5997 13.6837 21.5997 13.4709C21.5997 13.258 21.421 13.086 21.1998 13.086ZM22.7765 15.3953L19.5766 18.4744H19.5998C19.821 18.4744 19.9998 18.6464 19.9998 18.8592C19.9998 19.0721 19.821 19.2441 19.5998 19.2441H18.7998C18.793 19.2441 18.7874 19.2407 18.7806 19.2403L17.9766 20.0139H23.1997V15.3953H22.7765Z" fill="#2049A1"/>
<path d="M21.9998 19.2441H21.1998C20.9786 19.2441 20.7998 19.0721 20.7998 18.8593C20.7998 18.6464 20.9786 18.4744 21.1998 18.4744H21.9998C22.221 18.4744 22.3998 18.6464 22.3998 18.8593C22.3998 19.0721 22.221 19.2441 21.9998 19.2441Z" fill="#2049A1"/>
<path d="M16 8.08243C16 6.59717 17.2564 5.38826 18.8 5.38826H23.9999V10.7766H18.8C17.2564 10.7766 16 9.56769 16 8.08243ZM20.7999 8.08243C20.7999 7.23338 20.0824 6.5429 19.2 6.5429C18.3176 6.5429 17.6 7.23338 17.6 8.08243C17.6 8.93148 18.3176 9.62196 19.2 9.62196C20.0824 9.62196 20.7999 8.93148 20.7999 8.08243Z" fill="#2049A1"/>
</svg>
