<svg width="20" height="22" viewBox="0 0 20 22" fill="none" xmlns="http://www.w3.org/2000/svg">
<path d="M0 10.68V21.3601H6.38482H12.7696L11.7249 19.851C11.1444 19.0151 10.5175 17.7614 10.3086 17.0649L9.96032 15.7879H6.82595C3.87733 15.7879 3.7148 15.7647 3.7148 15.3235C3.7148 14.8824 3.87733 14.8592 6.73308 14.8592H9.75136V13.9305V13.0018H6.73308C3.87733 13.0018 3.7148 12.9786 3.7148 12.5374C3.7148 12.0963 3.87733 12.0731 7.45283 12.0731C11.0748 12.0731 11.2373 12.0499 12.9554 11.3534C14.302 10.8193 14.9985 10.6568 15.7415 10.7497L16.7166 10.8658V8.38151V5.92045L13.7448 2.9486L10.7962 -2.09808e-05H5.38647H0V10.68ZM15.5557 5.96688C15.5557 6.01332 14.4645 6.03654 13.1179 6.03654H10.6801V3.55226V1.04477L13.1179 3.48261C14.4645 4.82923 15.5557 5.94367 15.5557 5.96688ZM13.0018 9.75134C13.0018 10.1925 12.8393 10.2157 8.35831 10.2157C3.87733 10.2157 3.7148 10.1925 3.7148 9.75134C3.7148 9.31021 3.87733 9.28699 8.35831 9.28699C12.8393 9.28699 13.0018 9.31021 13.0018 9.75134Z" fill="#4479EA"/>
<path d="M13.1182 12.3052C12.236 12.6767 11.284 13.0017 11.0519 13.0017C10.6572 13.0017 10.634 13.141 10.75 14.4644C11.0054 17.2505 12.4217 19.8741 14.3488 21.2207L15.3239 21.894L16.2062 21.2672C18.1564 19.9206 19.6424 17.2041 19.8977 14.4877C20.0138 13.1875 19.9906 13.0017 19.6424 13.0017C19.4102 13.0017 18.4583 12.6767 17.4831 12.3052C16.5312 11.9105 15.5329 11.6087 15.2542 11.6319C14.9756 11.6319 14.0237 11.9337 13.1182 12.3052Z" fill="#4479EA"/>
</svg>
