<svg width="28" height="28" viewBox="0 0 28 28" fill="none" xmlns="http://www.w3.org/2000/svg">
<path d="M19.9474 15.9628L26.2465 10.9233C26.5003 10.7205 26.6453 10.4184 26.6453 10.0941C26.6453 9.5088 26.1688 9.03235 25.5836 9.03235H17.9219L15.0361 1.61145C14.8686 1.18151 14.4617 0.90332 14.0001 0.90332C13.5381 0.90332 13.1317 1.18151 12.9641 1.6119L10.0783 9.03235H2.41672C1.83143 9.03235 1.35498 9.5088 1.35498 10.0941C1.35498 10.4188 1.49995 10.7209 1.7533 10.9233L8.05285 15.9628L5.47775 23.6872C5.43892 23.8037 5.4195 23.9252 5.4195 24.0476V24.1496C5.4195 24.7783 5.93163 25.2904 6.56027 25.2904C6.7915 25.2904 7.01504 25.2213 7.20653 25.0899L11.7371 21.9751L10.2658 26.0947C10.0467 26.708 9.93563 27.3493 9.93563 28.0001H10.8389C10.8389 27.4527 10.9323 26.914 11.1161 26.3978L13.0075 21.1013L14.0001 20.4193L14.9923 21.1013L16.8837 26.3978C17.0679 26.914 17.1614 27.4527 17.1614 28.0001H18.0647C18.0647 27.3493 17.9536 26.708 17.7345 26.0943L16.2632 21.9747L20.7942 25.0894C20.9852 25.2213 21.2088 25.2904 21.44 25.2904C22.0687 25.2904 22.5808 24.7783 22.5808 24.1496V24.0476C22.5808 23.9252 22.5614 23.8037 22.5221 23.6863L19.9474 15.9628ZM10.1687 9.93558L12.7004 13.1339L3.21879 9.93558H10.1687ZM3.1104 10.8519L12.5627 14.0407L8.67337 15.3021L3.1104 10.8519ZM8.93666 16.166L12.7785 14.92L6.63298 23.0771L8.93666 16.166ZM13.5485 19.6335L6.92969 24.184L13.5485 15.3992V19.6335ZM13.5485 12.7509L10.9016 9.40674L13.5485 2.60093V12.7509ZM24.781 9.93558L15.2999 13.1339L17.8312 9.93558H24.781ZM14.4518 2.60048L17.0987 9.40674L14.4518 12.7509V2.60048ZM14.4518 19.6335V15.3992L21.0701 24.1835L14.4518 19.6335ZM15.2218 14.92L17.0219 15.504L17.3005 14.645L15.4372 14.0407L24.8885 10.8524L19.3274 15.3021L18.2042 14.9381L17.9256 15.7971L19.0636 16.166L21.3673 23.0766L15.2218 14.92Z" fill="#4479EA"/>
<path d="M0.903226 0.90332H0V1.80655H0.903226V0.90332Z" fill="#4479EA"/>
<path d="M1.80655 0H0.90332V0.903226H1.80655V0Z" fill="#4479EA"/>
<path d="M2.70938 0.90332H1.80615V1.80655H2.70938V0.90332Z" fill="#4479EA"/>
<path d="M1.80655 1.8064H0.90332V2.70962H1.80655V1.8064Z" fill="#4479EA"/>
<path d="M7.22549 4.96777H6.32227V5.871H7.22549V4.96777Z" fill="#4479EA"/>
<path d="M8.12881 4.06445H7.22559V4.96768H8.12881V4.06445Z" fill="#4479EA"/>
<path d="M9.03213 4.96777H8.12891V5.871H9.03213V4.96777Z" fill="#4479EA"/>
<path d="M8.12881 5.87085H7.22559V6.77408H8.12881V5.87085Z" fill="#4479EA"/>
<path d="M17.6127 2.25806H16.7095V3.16128H17.6127V2.25806Z" fill="#4479EA"/>
<path d="M18.5165 1.35474H17.6133V2.25796H18.5165V1.35474Z" fill="#4479EA"/>
<path d="M19.4193 2.25806H18.5161V3.16128H19.4193V2.25806Z" fill="#4479EA"/>
<path d="M18.5165 3.16138H17.6133V4.0646H18.5165V3.16138Z" fill="#4479EA"/>
<path d="M26.1938 14.4517H25.2905V15.3549H26.1938V14.4517Z" fill="#4479EA"/>
<path d="M27.0971 13.5483H26.1938V14.4516H27.0971V13.5483Z" fill="#4479EA"/>
<path d="M27.9999 14.4517H27.0967V15.3549H27.9999V14.4517Z" fill="#4479EA"/>
<path d="M27.0971 15.3547H26.1938V16.258H27.0971V15.3547Z" fill="#4479EA"/>
<path d="M25.7421 0H24.8389V0.903226H25.7421V0Z" fill="#4479EA"/>
<path d="M24.3345 1.1123L23.6958 0.473633L23.0571 1.1123L23.6958 1.75097L24.3345 1.1123Z" fill="#4479EA"/>
<path d="M23.4838 2.25806H22.5806V3.16128H23.4838V2.25806Z" fill="#4479EA"/>
<path d="M23.0571 4.30469L23.6958 4.94336L24.3345 4.30469L23.6958 3.66602L23.0571 4.30469Z" fill="#4479EA"/>
<path d="M25.7421 4.51611H24.8389V5.41934H25.7421V4.51611Z" fill="#4479EA"/>
<path d="M27.5229 4.30713L26.8843 3.66846L26.2456 4.30713L26.8843 4.9458L27.5229 4.30713Z" fill="#4479EA"/>
<path d="M27.9999 2.25806H27.0967V3.16128H27.9999V2.25806Z" fill="#4479EA"/>
<path d="M27.5234 1.11499L26.8848 0.476318L26.2461 1.11499L26.8848 1.75366L27.5234 1.11499Z" fill="#4479EA"/>
<path d="M3.16153 14.9033H2.2583V15.8065H3.16153V14.9033Z" fill="#4479EA"/>
<path d="M0.47461 16.0161L1.11328 16.6548L1.75195 16.0161L1.11328 15.3774L0.47461 16.0161Z" fill="#4479EA"/>
<path d="M0.903226 17.1614H0V18.0646H0.903226V17.1614Z" fill="#4479EA"/>
<path d="M0.47461 19.2092L1.11328 19.8479L1.75195 19.2092L1.11328 18.5706L0.47461 19.2092Z" fill="#4479EA"/>
<path d="M3.16153 19.4194H2.2583V20.3227H3.16153V19.4194Z" fill="#4479EA"/>
<path d="M3.66699 19.2092L4.30566 19.8479L4.94434 19.2092L4.30566 18.5706L3.66699 19.2092Z" fill="#4479EA"/>
<path d="M5.41934 17.1614H4.51611V18.0646H5.41934V17.1614Z" fill="#4479EA"/>
<path d="M3.66699 16.0166L4.30566 16.6553L4.94434 16.0166L4.30566 15.3779L3.66699 16.0166Z" fill="#4479EA"/>
<path d="M14.4511 22.1292H13.5479V25.2904H14.4511V22.1292Z" fill="#4479EA"/>
<path d="M14.4511 26.1936H13.5479V27.0968H14.4511V26.1936Z" fill="#4479EA"/>
</svg>
