<svg width="20" height="29" viewBox="0 0 20 29" fill="none" xmlns="http://www.w3.org/2000/svg">
<path d="M17.9351 26.8117C16.7947 26.8117 15.8702 25.8872 15.8702 24.7468C15.8702 23.6064 16.7947 22.6819 17.9351 22.6819C19.0755 22.6819 20 23.6064 20 24.7468C20 25.8872 19.0755 26.8117 17.9351 26.8117Z" fill="#4479EA"/>
<path d="M6.56596 2.22043C7.99777 0.788582 9.90155 0 11.9265 0H12.0454C14.0704 0 15.9742 0.78855 17.406 2.22043C18.8379 3.65232 19.6265 5.55603 19.6265 7.58099V16.698C19.6265 17.6321 18.8693 18.3892 17.9353 18.3892C17.0012 18.3892 16.2441 17.6321 16.2441 16.698V7.58099C16.2441 5.26588 14.3606 3.3824 12.0455 3.3824H11.9265C9.6114 3.3824 7.72796 5.26588 7.72796 7.58099V22.7658L9.08707 21.4229C9.75147 20.7664 10.8223 20.7728 11.4787 21.4372C12.1353 22.1016 12.1288 23.1724 11.4644 23.8289L7.17134 28.0708C6.84173 28.3965 6.4122 28.559 5.98273 28.559C5.54653 28.559 5.11046 28.3913 4.77969 28.0564L0.594795 23.8211C-0.0617447 23.1567 -0.0552692 22.0859 0.609131 21.4294C1.27353 20.7729 2.3443 20.7793 3.00071 21.4437L4.34556 22.8048V7.58099C4.34552 5.55603 5.1341 3.65228 6.56596 2.22043Z" fill="#4479EA"/>
</svg>
