<svg width="21" height="21" viewBox="0 0 21 21" fill="none" xmlns="http://www.w3.org/2000/svg">
<path d="M16.9337 13.1132C15.4985 13.1132 14.2347 13.838 13.5108 14.9299L7.81498 12.0276C8.01941 11.5575 8.13253 11.0413 8.13253 10.5C8.13253 9.95874 8.01941 9.44255 7.81498 8.97251L13.5108 6.07022C14.2347 7.16213 15.4985 7.88692 16.9337 7.88692C19.1759 7.88692 21 6.11791 21 3.94353C21 1.76901 19.1759 0 16.9337 0C14.6916 0 12.8674 1.76901 12.8674 3.94344C12.8674 4.48479 12.9805 5.00094 13.185 5.47097L7.48914 8.37327C6.76523 7.28136 5.50141 6.55656 4.06626 6.55656C1.82413 6.55656 0 8.32557 0 10.5C0 12.6744 1.82413 14.4434 4.06626 14.4434C5.50141 14.4434 6.76528 13.7186 7.48914 12.6267L13.185 15.529C12.9805 15.9991 12.8674 16.5153 12.8674 17.0566C12.8674 19.231 14.6916 21 16.9337 21C19.1759 21 21 19.231 21 17.0566C21 14.8822 19.1759 13.1132 16.9337 13.1132ZM16.9337 0.677419C18.7907 0.677419 20.3015 2.14254 20.3015 3.94344C20.3015 5.74429 18.7907 7.20941 16.9337 7.20941C15.0767 7.20941 13.566 5.74429 13.566 3.94344C13.5659 2.14254 15.0767 0.677419 16.9337 0.677419ZM4.06622 13.766C2.20925 13.766 0.69848 12.3009 0.69848 10.5C0.69848 8.6991 2.20925 7.23398 4.06622 7.23398C5.92318 7.23398 7.43396 8.6991 7.43396 10.5C7.43396 12.3009 5.92318 13.766 4.06622 13.766ZM16.9337 20.3226C15.0767 20.3226 13.566 18.8575 13.566 17.0566C13.566 15.2557 15.0767 13.7906 16.9337 13.7906C18.7907 13.7906 20.3015 15.2557 20.3015 17.0566C20.3015 18.8575 18.7907 20.3226 16.9337 20.3226Z" fill="#4479EA"/>
</svg>
