<svg width="22" height="23" viewBox="0 0 22 23" fill="none" xmlns="http://www.w3.org/2000/svg">
<path d="M4.36849 18.718V21.5699H4.36853C4.36853 21.9148 4.12427 22.2045 3.79769 22.2787H3.60879V22.2968C3.21392 22.2844 2.89654 21.9631 2.89654 21.5699V1.43448C2.89654 1.16872 2.82251 0.919855 2.69412 0.706476L12.3642 0.727185C12.7663 0.727185 13.0581 1.02466 13.0581 1.43448V18.3432H13.7704V1.43448C13.7704 0.64381 13.1527 0.0243809 12.3649 0.0243809L1.43234 0.000976562C0.641182 0.00946681 0 0.651177 0 1.43448V10.4254H1.75691V9.72263H0.712252V1.43453C0.712252 1.03346 1.04243 0.707195 1.44827 0.707195C1.85411 0.707195 2.18424 1.03342 2.18424 1.43448V21.5699C2.18424 22.3585 2.83399 22.9999 3.63251 22.9999C3.71173 22.9999 3.78954 22.9936 3.8653 22.9815H14.5506C15.3509 22.9815 16.0021 22.3483 16.0021 21.5699V18.718H4.36849ZM15.2898 21.5699C15.2898 21.9674 14.9651 22.2787 14.5507 22.2787H4.89007C5.01135 22.0697 5.08074 21.8276 5.08074 21.5699V19.4208H15.2898V21.5699H15.2898Z" fill="#4479EA"/>
<path d="M11.2533 2.5542H10.541V3.25696H11.2533V2.5542Z" fill="#4479EA"/>
<path d="M7.97692 2.5542H3.98828V3.25696H7.97692V2.5542Z" fill="#4479EA"/>
<path d="M5.79268 3.95972H3.98828V4.66248H5.79268V3.95972Z" fill="#4479EA"/>
<path d="M11.6332 5.36523H3.98828V6.06799H11.6332V5.36523Z" fill="#4479EA"/>
<path d="M5.41279 6.86475H3.98828V7.56751H5.41279V6.86475Z" fill="#4479EA"/>
<path d="M9.06939 6.86475H6.17285V7.56751H9.06939V6.86475Z" fill="#4479EA"/>
<path d="M11.6335 6.86475H9.8291V7.56751H11.6335V6.86475Z" fill="#4479EA"/>
<path d="M11.6336 8.27002H6.93262V8.97278H11.6336V8.27002Z" fill="#4479EA"/>
<path d="M6.17257 8.27002H3.98828V8.97278H6.17257V8.27002Z" fill="#4479EA"/>
<path d="M11.6332 9.72241H3.98828V10.4252H11.6332V9.72241Z" fill="#4479EA"/>
<path d="M11.6335 11.175H10.209V11.8778H11.6335V11.175Z" fill="#4479EA"/>
<path d="M9.44893 11.175H7.64453V11.8778H9.44893V11.175Z" fill="#4479EA"/>
<path d="M6.93231 11.175H3.98828V11.8778H6.93231V11.175Z" fill="#4479EA"/>
<path d="M8.68922 12.5806H3.98828V13.2833H8.68922V12.5806Z" fill="#4479EA"/>
<path d="M7.97711 16.9375H5.08057V17.6403H7.97711V16.9375Z" fill="#4479EA"/>
<path d="M11.6335 16.9375H8.68945V17.6403H11.6335V16.9375Z" fill="#4479EA"/>
<path d="M11.6336 14.4077H10.9214V15.1105H11.6336V14.4077Z" fill="#4479EA"/>
<path d="M16.7407 14.0229V21.9259H18.9198V14.0229H16.7407ZM18.1983 21.2142H17.4621V14.7347H18.1983V21.2142Z" fill="#4479EA"/>
<path d="M17.829 8.56177L16.3359 11.4723L16.7146 12.636V13.6113H18.8988V12.6392L19.3005 11.4768L17.829 8.56177ZM18.1865 12.5227V12.9086H17.4268V12.5259L17.1034 11.5322L17.8239 10.1279L18.5304 11.5276L18.1865 12.5227Z" fill="#4479EA"/>
<path d="M18.9461 22.2786H16.7144V22.9813H18.9461V22.2786Z" fill="#4479EA"/>
<path d="M18.1864 11.175H17.4741V11.8778H18.1864V11.175Z" fill="#4479EA"/>
<path d="M17.8306 1.07861C16.828 1.07861 16.0122 1.88348 16.0122 2.87275C16.0122 3.86207 16.828 4.66689 17.8306 4.66689C18.8333 4.66689 19.649 3.86202 19.649 2.87275C19.649 1.88348 18.8333 1.07861 17.8306 1.07861ZM17.8306 3.9551C17.2258 3.9551 16.7337 3.46954 16.7337 2.87275C16.7337 2.27596 17.2257 1.7904 17.8306 1.7904C18.4355 1.7904 18.9276 2.27592 18.9276 2.87275C18.9276 3.46949 18.4355 3.9551 17.8306 3.9551Z" fill="#4479EA"/>
<path d="M18.1864 2.5542H17.4741V3.25696H18.1864V2.5542Z" fill="#4479EA"/>
<path d="M19.6996 5.07344C20.3365 4.54606 20.7423 3.75543 20.7423 2.87276C20.7423 1.28872 19.4362 0 17.8307 0C16.2253 0 14.9191 1.28872 14.9191 2.8728C14.9191 3.75543 15.3249 4.54606 15.9618 5.07349L14.6318 8.13537L16.1449 7.63772L16.6706 9.19386L17.8306 6.90469L18.9907 9.19386L19.5165 7.63772L21.0295 8.13537L19.6996 5.07344ZM16.8043 7.33854L16.6012 6.73735L15.9277 6.95882L16.5766 5.46503C16.8953 5.61578 17.2463 5.71021 17.6159 5.73694L16.8043 7.33854ZM17.8307 5.03382C16.623 5.03382 15.6405 4.06436 15.6405 2.87276C15.6405 1.68116 16.623 0.711744 17.8307 0.711744C19.0384 0.711744 20.0209 1.6812 20.0209 2.87276C20.0209 4.0644 19.0384 5.03382 17.8307 5.03382ZM19.0602 6.73735L18.8571 7.33854L18.2339 6.10885L18.4517 5.67917C18.6731 5.63151 18.8853 5.55941 19.0848 5.46507L19.7337 6.95886L19.0602 6.73735Z" fill="#4479EA"/>
</svg>
