<svg width="20" height="20" viewBox="0 0 20 20" fill="none" xmlns="http://www.w3.org/2000/svg">
<path d="M1.83578 4.10269C2.00311 4.02636 2.07678 3.82869 2.00011 3.66102C1.92345 3.49369 1.72611 3.41936 1.55845 3.49669C1.32745 3.60202 1.11245 3.74036 0.920114 3.90702C0.781114 4.02769 0.766114 4.23836 0.886448 4.37736C0.952448 4.45336 1.04545 4.49236 1.13845 4.49236C1.21578 4.49236 1.29378 4.46569 1.35678 4.41102C1.50111 4.28569 1.66211 4.18202 1.83578 4.10269Z" fill="#4479EA"/>
<path d="M2.99984 3.92277H3.6665C3.85084 3.92277 3.99984 3.77377 3.99984 3.58944C3.99984 3.4051 3.85084 3.2561 3.6665 3.2561H2.99984C2.8155 3.2561 2.6665 3.4051 2.6665 3.58944C2.6665 3.77377 2.8155 3.92277 2.99984 3.92277Z" fill="#4479EA"/>
<path d="M4.99984 3.92277H5.6665C5.85084 3.92277 5.99984 3.77377 5.99984 3.58944C5.99984 3.4051 5.85084 3.2561 5.6665 3.2561H4.99984C4.8155 3.2561 4.6665 3.4051 4.6665 3.58944C4.6665 3.77377 4.8155 3.92277 4.99984 3.92277Z" fill="#4479EA"/>
<path d="M3.6665 7.92285H2.99984C2.8155 7.92285 2.6665 8.07185 2.6665 8.25618C2.6665 8.44052 2.8155 8.58952 2.99984 8.58952H3.6665C3.85084 8.58952 3.99984 8.44052 3.99984 8.25618C3.99984 8.07185 3.85084 7.92285 3.6665 7.92285Z" fill="#4479EA"/>
<path d="M7.66699 7.92285H7.00033C6.81599 7.92285 6.66699 8.07185 6.66699 8.25618C6.66699 8.44052 6.81599 8.58952 7.00033 8.58952H7.66699C7.85133 8.58952 8.00033 8.44052 8.00033 8.25618C8.00033 8.07185 7.85133 7.92285 7.66699 7.92285Z" fill="#4479EA"/>
<path d="M5.6665 7.92285H4.99984C4.8155 7.92285 4.6665 8.07185 4.6665 8.25618C4.6665 8.44052 4.8155 8.58952 4.99984 8.58952H5.6665C5.85084 8.58952 5.99984 8.44052 5.99984 8.25618C5.99984 8.07185 5.85084 7.92285 5.6665 7.92285Z" fill="#4479EA"/>
<path d="M1.83594 7.74263C1.6626 7.6633 1.5016 7.55963 1.35727 7.4343C1.21827 7.31397 1.00794 7.32897 0.886936 7.46797C0.766602 7.60697 0.781602 7.81763 0.920602 7.9383C1.11294 8.10497 1.3276 8.24297 1.5586 8.34863C1.6036 8.3693 1.6506 8.37897 1.69694 8.37897C1.8236 8.37897 1.94427 8.30663 2.00027 8.1843C2.0766 8.01697 2.00327 7.81897 1.83594 7.74263Z" fill="#4479EA"/>
<path d="M9.6665 7.92285H8.99984C8.8155 7.92285 8.6665 8.07185 8.6665 8.25618C8.6665 8.44052 8.8155 8.58952 8.99984 8.58952H9.6665C9.85084 8.58952 9.99984 8.44052 9.99984 8.25618C9.99984 8.07185 9.85084 7.92285 9.6665 7.92285Z" fill="#4479EA"/>
<path d="M15.6665 7.92285H14.9998C14.8155 7.92285 14.6665 8.07185 14.6665 8.25618C14.6665 8.44052 14.8155 8.58952 14.9998 8.58952H15.6665C15.8508 8.58952 15.9998 8.44052 15.9998 8.25618C15.9998 8.07185 15.8508 7.92285 15.6665 7.92285Z" fill="#4479EA"/>
<path d="M17.667 7.92285H17.0003C16.816 7.92285 16.667 8.07185 16.667 8.25618C16.667 8.44052 16.816 8.58952 17.0003 8.58952H17.667C17.8513 8.58952 18.0003 8.44052 18.0003 8.25618C18.0003 8.07185 17.8513 7.92285 17.667 7.92285Z" fill="#4479EA"/>
<path d="M11.6665 7.92285H10.9998C10.8155 7.92285 10.6665 8.07185 10.6665 8.25618C10.6665 8.44052 10.8155 8.58952 10.9998 8.58952H11.6665C11.8508 8.58952 11.9998 8.44052 11.9998 8.25618C11.9998 8.07185 11.8508 7.92285 11.6665 7.92285Z" fill="#4479EA"/>
<path d="M13.6665 7.92285H12.9998C12.8155 7.92285 12.6665 8.07185 12.6665 8.25618C12.6665 8.44052 12.8155 8.58952 12.9998 8.58952H13.6665C13.8508 8.58952 13.9998 8.44052 13.9998 8.25618C13.9998 8.07185 13.8508 7.92285 13.6665 7.92285Z" fill="#4479EA"/>
<path d="M1.83594 17.7426C1.6626 17.6633 1.5016 17.5596 1.35727 17.4343C1.21827 17.314 1.00794 17.329 0.886936 17.468C0.766602 17.607 0.781602 17.8176 0.920602 17.9383C1.11294 18.105 1.3276 18.243 1.5586 18.3486C1.6036 18.3693 1.6506 18.379 1.69694 18.379C1.8236 18.379 1.94427 18.3066 2.00027 18.1843C2.0766 18.017 2.00327 17.819 1.83594 17.7426Z" fill="#4479EA"/>
<path d="M5.6665 17.9229H4.99984C4.8155 17.9229 4.6665 18.0719 4.6665 18.2562C4.6665 18.4405 4.8155 18.5895 4.99984 18.5895H5.6665C5.85084 18.5895 5.99984 18.4405 5.99984 18.2562C5.99984 18.0719 5.85084 17.9229 5.6665 17.9229Z" fill="#4479EA"/>
<path d="M3.6665 17.9229H2.99984C2.8155 17.9229 2.6665 18.0719 2.6665 18.2562C2.6665 18.4405 2.8155 18.5895 2.99984 18.5895H3.6665C3.85084 18.5895 3.99984 18.4405 3.99984 18.2562C3.99984 18.0719 3.85084 17.9229 3.6665 17.9229Z" fill="#4479EA"/>
<path d="M11.6665 17.9229H10.9998C10.8155 17.9229 10.6665 18.0719 10.6665 18.2562C10.6665 18.4405 10.8155 18.5895 10.9998 18.5895H11.6665C11.8508 18.5895 11.9998 18.4405 11.9998 18.2562C11.9998 18.0719 11.8508 17.9229 11.6665 17.9229Z" fill="#4479EA"/>
<path d="M12.6665 18.2562C12.6665 18.4405 12.8155 18.5895 12.9998 18.5895H13.6665C13.8508 18.5895 13.9998 18.4405 13.9998 18.2562C13.9998 18.0719 13.8508 17.9229 13.6665 17.9229H12.9998C12.8155 17.9229 12.6665 18.0719 12.6665 18.2562Z" fill="#4479EA"/>
<path d="M14.9998 18.5895H15.6665C15.8508 18.5895 15.9998 18.4405 15.9998 18.2562C15.9998 18.0719 15.8508 17.9229 15.6665 17.9229H14.9998C14.8155 17.9229 14.6665 18.0719 14.6665 18.2562C14.6665 18.4405 14.8155 18.5895 14.9998 18.5895Z" fill="#4479EA"/>
<path d="M9.6665 17.9229H8.99984C8.8155 17.9229 8.6665 18.0719 8.6665 18.2562C8.6665 18.4405 8.8155 18.5895 8.99984 18.5895H9.6665C9.85084 18.5895 9.99984 18.4405 9.99984 18.2562C9.99984 18.0719 9.85084 17.9229 9.6665 17.9229Z" fill="#4479EA"/>
<path d="M17.0003 18.5895H17.667C17.8513 18.5895 18.0003 18.4405 18.0003 18.2562C18.0003 18.0719 17.8513 17.9229 17.667 17.9229H17.0003C16.816 17.9229 16.667 18.0719 16.667 18.2562C16.667 18.4405 16.816 18.5895 17.0003 18.5895Z" fill="#4479EA"/>
<path d="M7.66699 17.9229H7.00033C6.81599 17.9229 6.66699 18.0719 6.66699 18.2562C6.66699 18.4405 6.81599 18.5895 7.00033 18.5895H7.66699C7.85133 18.5895 8.00033 18.4405 8.00033 18.2562C8.00033 18.0719 7.85133 17.9229 7.66699 17.9229Z" fill="#4479EA"/>
<path d="M14.6665 12.9227C14.6665 13.658 15.2645 14.256 15.9998 14.256C16.7352 14.256 17.3332 13.658 17.3332 12.9227C17.3332 12.1874 16.7352 11.5894 15.9998 11.5894C15.2645 11.5894 14.6665 12.1874 14.6665 12.9227ZM15.9998 12.256C16.3675 12.256 16.6665 12.555 16.6665 12.9227C16.6665 13.2904 16.3675 13.5894 15.9998 13.5894C15.6322 13.5894 15.3332 13.2904 15.3332 12.9227C15.3332 12.555 15.6322 12.256 15.9998 12.256Z" fill="#4479EA"/>
<path d="M14.314 1.92275L12.502 0.11075C12.3543 -0.0369167 12.1133 -0.0369167 11.9657 0.11075L11.2837 0.79275L10.6017 0.11075C10.454 -0.0369167 10.213 -0.0369167 10.0653 0.11075L8.25333 1.92275H2.66667C1.19633 1.92275 0 3.11908 0 4.58942V17.5387C0 18.8531 1.06967 19.9228 2.384 19.9228H20V15.2561V10.5894V7.25608V6.58942V1.92275H14.314ZM12.234 0.785417L13.3713 1.92275L18.038 6.58942H16.241L12.4853 2.83342C12.3443 2.69642 12.1233 2.69675 11.979 2.83708L8.227 6.58942H6.43L11.7553 1.26442L12.234 0.785417ZM15.2987 6.58942H9.16967L12.234 3.52508L15.2987 6.58942ZM10.3333 0.785417L10.8123 1.26442L5.48733 6.58942H4.52933L9.196 1.92275L10.3333 0.785417ZM2.66667 2.58942H7.58667L6.89967 3.27642C6.79867 3.30908 6.72133 3.38608 6.68867 3.48742L3.58667 6.58942H2.66667C1.56367 6.58942 0.666667 5.69242 0.666667 4.58942C0.666667 3.48642 1.56367 2.58942 2.66667 2.58942ZM19.3333 14.5894H15.6667C14.7477 14.5894 14 13.8418 14 12.9228C14 12.0037 14.7477 11.2561 15.6667 11.2561H19.3333V14.5894ZM19.3333 7.92275H19C18.8157 7.92275 18.6667 8.07175 18.6667 8.25608C18.6667 8.44042 18.8157 8.58942 19 8.58942H19.3333V10.5894H15.6667C14.3803 10.5894 13.3333 11.6364 13.3333 12.9228C13.3333 14.2091 14.3803 15.2561 15.6667 15.2561H19.3333V17.9228H19C18.8157 17.9228 18.6667 18.0718 18.6667 18.2561C18.6667 18.4404 18.8157 18.5894 19 18.5894H19.3333V19.2561H2.384C1.43733 19.2561 0.666667 18.4858 0.666667 17.5387V16.8041C0.744333 16.7208 0.781667 16.6031 0.747 16.4861C0.693667 16.3041 0.666667 16.1144 0.666667 15.9228V6.80408C0.744333 6.72075 0.781667 6.60308 0.747 6.48608C0.740667 6.46442 0.738333 6.44208 0.732667 6.42042C0.762667 6.45208 0.793 6.48308 0.824333 6.51308C0.853 6.54075 0.882667 6.56708 0.912667 6.59342C0.95 6.62608 0.988 6.65775 1.027 6.68842C1.05833 6.71308 1.09033 6.73675 1.12267 6.76008C1.163 6.78908 1.20467 6.81642 1.24667 6.84308C1.28033 6.86442 1.314 6.88508 1.34867 6.90508C1.39267 6.93008 1.43767 6.95342 1.483 6.97608C1.518 6.99375 1.553 7.01142 1.589 7.02742C1.63667 7.04842 1.68533 7.06708 1.734 7.08542C1.77 7.09908 1.80567 7.11308 1.84233 7.12508C1.89467 7.14208 1.948 7.15575 2.00133 7.16975C2.03667 7.17875 2.07133 7.18942 2.10733 7.19708C2.16767 7.21008 2.229 7.21875 2.29067 7.22742C2.32133 7.23175 2.35133 7.23808 2.38233 7.24142C2.47567 7.25142 2.57033 7.25708 2.666 7.25708H3.938H4.88067H5.83867H6.78133H8.43333H16.035H17.686H18.6287H19.3333V7.92275ZM18.9807 6.58942L16.314 3.92275H16.3333C16.5177 3.92275 16.6667 3.77375 16.6667 3.58942C16.6667 3.40508 16.5177 3.25608 16.3333 3.25608H15.6667C15.661 3.25608 15.6563 3.25908 15.6507 3.25942L14.9807 2.58942H19.3333V6.58942H18.9807Z" fill="#4479EA"/>
<path d="M18.3335 3.2561H17.6668C17.4825 3.2561 17.3335 3.4051 17.3335 3.58944C17.3335 3.77377 17.4825 3.92277 17.6668 3.92277H18.3335C18.5178 3.92277 18.6668 3.77377 18.6668 3.58944C18.6668 3.4051 18.5178 3.2561 18.3335 3.2561Z" fill="#4479EA"/>
</svg>
